P2
100 100
255
96 95 95 95 95 95 95 94 93 92 92 92 92 92 92 92 92 92 92 92 92 92 92 92 92 92 93 93 94 94 93 93 93 92 92 91 91 90 90 90 90 90 89 89 89 89 89 89 89 89 89 89 90 89 89 89 89 89 89 89 89 89 89 88 88 88 88 89 89 89 89 88 88 88 88 88 88 89 89 90 90 90 90 90 90 90 90 90 89 89 89 89 89 89 89 89 89 89 89 89 
95 95 95 94 94 94 94 92 92 92 92 92 92 92 92 92 91 91 91 91 91 91 91 91 92 92 92 93 93 93 93 93 93 93 93 93 92 91 91 91 90 90 90 90 90 90 89 89 88 89 89 89 89 89 90 90 90 90 90 90 90 90 89 88 88 88 88 89 89 89 89 88 88 88 88 89 89 90 90 90 90 90 90 90 90 91 91 91 90 90 90 90 90 90 90 90 90 90 90 89 
94 94 94 94 93 93 92 92 92 92 92 92 92 92 92 91 91 91 91 91 91 91 91 92 92 92 92 92 93 93 93 94 94 94 94 94 93 93 92 91 91 91 91 91 90 91 89 89 89 89 89 89 88 89 89 90 90 90 90 90 90 89 89 89 88 88 89 89 89 89 89 88 88 88 89 89 89 89 89 90 90 90 90 90 91 92 92 91 91 91 91 91 90 90 90 90 90 90 90 89 
94 94 93 93 93 92 92 92 91 91 91 91 91 92 92 91 91 91 91 91 91 91 91 92 92 91 92 92 92 93 93 94 94 94 94 94 93 93 93 92 92 92 92 92 92 92 92 91 91 90 89 89 89 89 90 90 90 90 90 90 90 90 89 89 89 88 88 89 89 89 89 88 88 89 89 90 90 91 91 91 91 91 91 91 92 92 92 92 91 91 91 91 89 90 90 90 89 89 89 89 
94 93 93 93 92 92 92 92 91 91 91 91 91 91 91 90 90 90 90 90 90 90 90 91 91 90 90 90 91 91 92 93 93 93 94 94 93 93 93 93 93 93 93 93 93 93 93 93 92 91 91 91 90 90 91 91 91 91 91 91 91 90 90 89 89 89 88 89 89 89 89 88 88 89 89 90 90 91 91 91 91 91 91 92 92 92 92 92 91 91 91 91 89 90 89 89 89 89 89 88 
92 92 92 92 92 92 92 92 91 91 91 91 90 90 90 90 90 90 90 90 90 90 90 90 89 89 88 88 89 90 91 91 92 92 93 93 93 93 93 93 93 94 94 94 94 94 94 93 93 92 92 92 91 91 91 91 91 91 91 91 91 91 90 90 89 89 88 89 89 88 88 88 88 89 89 90 90 91 91 91 91 91 91 91 92 92 92 92 91 91 91 91 89 90 89 89 89 88 88 88 
91 91 91 91 91 91 91 92 92 91 91 90 90 89 89 89 89 89 90 90 90 90 90 90 90 89 88 89 89 90 90 91 91 92 93 93 93 93 93 93 94 94 94 94 94 94 93 93 92 92 92 92 92 92 91 91 91 91 91 91 91 91 90 90 89 89 89 89 89 88 88 87 88 88 89 89 90 90 90 91 91 91 91 91 92 92 92 92 92 91 91 91 90 90 90 90 89 89 89 89 
90 90 90 90 91 91 91 92 92 92 91 90 89 89 88 88 88 89 89 89 90 90 90 91 90 90 89 89 90 90 91 91 92 92 93 93 93 93 93 94 94 94 94 94 94 94 93 92 92 92 92 92 92 92 92 92 91 91 91 91 91 90 90 90 89 89 88 88 88 88 87 87 88 88 88 89 90 90 90 91 91 91 91 91 92 92 92 92 91 91 91 91 91 91 90 90 89 89 89 89 
88 88 89 89 89 90 91 92 92 91 91 90 90 89 88 88 88 89 89 90 90 90 91 91 91 90 90 90 91 91 92 92 92 92 92 93 93 93 94 94 94 94 94 94 93 93 92 92 92 92 92 92 92 92 92 92 92 92 91 91 91 90 89 89 89 89 88 88 88 87 87 87 87 88 88 89 89 90 90 90 91 91 91 91 91 91 91 91 91 90 90 90 90 90 90 90 90 89 89 89 
88 88 88 88 89 89 90 90 90 89 89 89 89 88 88 88 88 89 89 89 90 90 90 91 91 90 90 90 91 91 91 92 92 92 92 93 93 93 93 93 93 93 93 92 91 90 91 91 91 91 91 91 92 92 91 90 90 90 90 90 90 89 89 89 88 88 88 88 88 87 87 87 87 88 88 89 89 89 89 90 90 90 90 90 91 91 91 90 90 89 89 89 89 89 89 89 89 89 89 88 
87 87 87 87 87 87 88 88 89 89 88 88 88 87 87 88 88 88 88 89 89 89 89 90 90 90 90 90 90 91 90 90 90 90 91 91 91 92 93 93 92 92 91 90 90 89 88 88 88 89 89 89 89 89 89 89 89 90 90 90 90 89 88 88 88 88 88 88 88 88 88 88 88 89 89 89 88 88 87 88 88 88 88 88 89 90 90 89 89 89 88 88 88 88 88 88 88 88 88 88 
85 85 85 84 84 85 85 86 87 87 87 87 87 87 87 87 87 87 87 87 88 88 88 88 88 88 89 89 89 89 89 89 89 89 90 90 90 91 91 91 91 90 90 89 88 88 87 87 87 88 88 88 88 88 88 88 88 89 89 89 89 88 88 88 88 88 88 88 88 88 88 88 89 89 89 89 89 88 88 88 88 88 88 89 89 89 88 89 88 87 87 87 87 87 87 87 87 88 88 88 
85 85 84 84 83 84 84 85 85 85 85 85 85 86 86 86 86 86 85 85 85 85 85 86 86 86 86 86 86 86 87 86 86 86 87 87 87 87 88 88 88 88 88 87 86 86 86 86 86 86 86 87 87 87 87 88 88 88 89 89 89 89 89 89 89 89 89 89 89 89 89 89 89 89 89 89 89 88 88 88 88 88 88 89 88 88 88 88 88 88 87 87 88 88 88 87 87 87 87 87 
85 85 84 83 83 83 83 83 83 84 84 84 85 85 85 85 85 85 85 84 84 84 84 84 85 85 85 85 84 84 84 84 84 84 85 85 85 86 86 86 87 87 87 86 86 86 85 86 86 86 86 86 86 86 87 87 88 88 88 89 89 88 88 88 89 89 89 89 89 89 89 89 89 89 89 89 88 88 88 88 88 88 88 88 88 88 88 88 88 88 88 88 88 88 88 87 87 87 86 86 
85 85 84 83 83 83 83 83 83 84 84 85 85 86 86 86 86 85 85 84 84 84 84 84 85 85 85 84 84 83 83 84 83 84 84 85 85 85 86 86 86 86 86 86 86 86 85 86 86 86 86 86 86 86 87 87 88 88 88 88 88 88 88 88 88 88 88 89 89 89 89 89 89 89 89 89 88 88 87 87 87 87 88 88 87 87 87 88 88 88 88 88 88 88 87 87 86 86 85 85 
86 85 84 84 83 83 83 84 84 85 86 86 86 87 87 88 87 86 85 85 85 86 86 85 85 85 85 85 85 84 84 84 84 84 84 85 85 86 86 86 86 86 85 85 85 85 85 85 86 86 86 87 86 86 87 87 88 88 88 88 88 88 88 87 88 88 88 88 88 88 89 88 88 89 89 89 88 88 87 87 87 87 87 87 87 87 87 88 88 88 88 88 87 87 87 86 85 85 84 84 
86 85 85 84 84 84 84 85 85 86 87 87 87 88 88 88 88 87 87 87 87 87 87 86 86 86 86 86 86 86 85 84 84 85 85 85 86 87 86 86 86 86 85 85 85 85 85 85 85 86 87 87 87 87 87 88 88 88 88 88 88 87 87 87 87 87 87 87 87 87 87 87 88 88 88 88 88 88 88 87 87 86 86 87 87 87 87 88 88 88 88 87 87 86 86 85 84 84 84 84 
86 86 85 85 85 85 85 87 87 88 89 89 89 89 89 89 89 88 88 87 87 87 87 88 88 87 87 87 87 87 86 86 85 85 86 86 87 87 86 86 86 86 85 85 84 84 84 84 85 86 86 87 88 88 88 88 88 88 88 88 87 86 86 86 86 86 85 85 85 85 85 85 86 86 86 87 87 87 87 87 86 86 85 85 86 86 87 87 88 88 87 87 86 85 85 84 83 83 83 82 
87 86 86 86 86 86 87 87 88 89 89 89 89 89 90 89 88 88 87 86 85 86 86 87 88 87 87 87 86 86 86 85 85 85 85 86 86 87 86 86 86 85 84 84 83 83 83 84 85 86 87 88 88 88 88 88 88 87 87 87 87 87 87 87 86 86 85 85 84 84 83 83 84 84 85 85 86 86 86 86 86 85 84 84 85 85 85 86 86 86 86 86 85 84 84 83 83 82 82 82 
87 87 87 87 87 87 87 88 88 88 88 88 88 88 88 88 87 87 85 84 84 84 86 87 87 86 86 86 85 85 85 84 84 84 84 84 85 85 85 85 85 84 83 83 82 82 82 84 85 87 87 88 88 87 86 86 86 86 86 86 86 86 87 87 87 86 86 85 84 83 82 82 82 83 84 85 85 85 86 86 86 85 83 83 84 84 84 85 85 85 85 85 84 84 84 83 82 82 82 81 
88 88 87 87 87 87 88 88 87 87 86 85 84 84 84 85 86 86 84 83 82 83 84 85 85 85 85 84 84 84 84 84 84 84 84 84 84 85 84 84 84 84 83 83 82 82 83 84 86 88 88 87 86 85 84 84 84 84 84 84 85 85 86 86 86 86 85 84 82 81 81 81 81 82 83 84 85 86 86 87 86 85 83 83 83 83 83 83 83 83 84 84 84 84 83 83 82 82 81 81 
88 87 87 86 86 86 86 85 85 85 84 82 82 82 82 84 85 85 85 84 83 83 84 84 85 85 85 84 84 84 84 84 84 84 84 84 84 84 84 84 84 84 83 83 83 83 84 85 87 87 87 87 85 85 83 83 83 83 83 83 84 84 85 85 85 85 85 83 82 81 80 79 80 81 82 84 85 86 87 87 87 85 84 83 83 83 82 82 82 83 83 83 83 83 82 82 81 80 80 80 
86 86 85 84 84 84 84 84 83 82 82 81 81 81 83 84 85 87 87 86 85 85 85 85 85 86 85 85 85 85 85 84 84 84 83 83 84 84 84 84 84 85 84 84 84 84 85 86 87 87 87 86 85 85 84 83 83 82 83 83 83 84 84 85 85 85 84 83 82 81 80 80 80 80 82 84 85 87 88 89 88 86 85 83 84 83 82 82 81 82 83 83 83 82 81 81 81 80 80 79 
85 84 83 84 84 84 84 83 83 82 82 82 83 84 84 85 87 90 89 88 88 86 86 85 85 86 86 86 86 86 85 85 85 84 83 83 84 85 85 85 85 85 85 85 85 85 86 87 87 88 88 87 86 85 84 84 84 83 83 83 83 83 83 85 84 85 85 84 82 82 81 81 81 82 82 84 85 87 88 89 89 87 85 84 85 85 83 82 81 81 82 83 83 82 80 81 81 80 80 79 
86 85 84 84 84 84 83 83 83 83 83 84 85 86 87 88 89 90 91 90 88 87 86 85 85 86 87 87 87 86 86 85 85 85 84 84 84 85 85 85 85 86 86 86 86 86 87 88 88 89 89 88 88 87 85 85 84 83 83 83 84 84 84 85 84 85 85 84 83 83 83 83 83 83 83 85 85 87 88 90 89 88 86 85 86 86 84 82 81 81 82 83 82 81 80 81 82 82 82 81 
88 87 87 87 87 86 85 84 84 85 85 85 87 88 88 89 90 91 90 89 88 87 86 85 86 87 87 88 87 87 86 85 85 85 86 86 85 85 85 84 84 84 85 85 85 86 87 88 89 89 90 89 88 88 86 85 84 84 84 84 85 84 85 86 86 86 86 85 84 84 84 85 85 84 84 84 85 86 87 88 88 87 86 86 87 87 85 83 82 82 82 82 82 81 81 82 83 83 83 82 
89 89 88 88 87 87 86 86 85 85 85 85 85 86 86 87 87 88 88 87 86 85 85 84 85 86 87 88 88 87 86 86 85 86 87 88 87 85 85 84 83 83 84 84 85 85 87 87 88 88 88 88 87 86 85 84 84 84 84 85 85 85 86 87 87 87 86 86 86 86 86 86 86 86 85 85 85 85 86 86 86 86 86 86 86 86 85 84 83 83 83 84 83 82 81 83 83 84 84 83 
88 88 87 87 86 85 85 85 85 84 84 83 83 83 84 85 86 86 86 85 84 84 84 84 85 86 87 88 89 88 87 86 86 87 88 88 87 86 85 85 84 84 84 85 85 86 87 87 87 87 86 86 85 85 85 85 86 86 86 86 85 86 87 88 87 87 86 86 86 85 84 84 85 84 84 83 83 84 84 85 85 86 86 86 86 86 85 85 84 84 85 84 83 82 81 83 83 84 84 85 
85 85 85 84 84 83 83 84 84 84 84 83 83 83 84 85 85 86 86 85 84 84 84 84 85 87 88 89 89 89 89 88 88 89 90 89 88 87 87 87 86 86 86 86 87 88 88 88 87 87 86 86 85 85 86 86 87 87 87 86 85 86 88 89 87 86 85 85 85 84 83 83 83 83 83 82 82 83 83 84 85 86 86 86 86 85 85 85 85 85 85 84 83 82 81 82 83 83 84 85 
85 85 85 84 84 83 84 85 85 86 85 85 85 85 85 86 86 87 87 85 84 84 85 86 87 88 89 90 90 90 89 90 90 90 90 90 89 89 88 88 87 86 86 87 88 88 88 88 87 87 87 86 86 86 87 87 87 87 87 86 85 86 87 88 86 84 83 83 83 83 83 82 82 82 83 82 82 82 82 83 85 86 86 86 85 85 84 84 84 84 83 83 83 82 82 82 82 81 82 83 
87 87 86 86 85 85 86 87 88 87 87 86 86 86 87 87 87 87 87 86 85 85 85 87 89 89 90 90 90 90 90 90 91 91 90 90 89 90 90 89 88 87 87 87 88 89 88 88 87 87 87 87 87 87 86 86 86 86 86 85 85 85 86 86 84 82 81 82 82 81 81 79 79 80 80 81 81 81 81 82 84 85 85 85 85 85 84 84 83 82 82 83 83 82 82 82 82 81 80 82 
89 88 88 88 86 86 88 89 89 88 87 87 87 87 88 88 88 88 87 86 85 85 85 86 88 89 89 89 89 89 89 90 90 90 90 89 89 90 89 90 88 87 88 86 86 87 86 86 86 86 86 85 85 85 85 84 84 84 84 84 85 85 85 85 83 81 80 81 82 81 80 79 78 78 79 81 81 81 81 81 82 84 85 85 85 85 85 84 83 82 83 84 84 84 83 82 82 80 80 81 
90 90 89 88 88 87 89 89 89 88 87 87 87 88 89 90 89 89 89 91 88 86 86 87 88 89 89 89 89 89 89 90 90 90 89 88 87 87 87 87 88 89 89 87 85 83 81 82 83 83 82 82 82 82 82 81 80 80 81 82 83 83 84 84 82 80 81 81 82 81 81 79 78 79 80 81 82 82 81 80 80 82 84 85 86 86 85 84 83 83 84 86 87 86 84 82 81 79 78 81 
90 90 90 89 88 87 88 89 89 88 87 87 87 88 90 90 90 91 91 93 94 89 89 89 89 91 92 90 90 90 90 90 90 90 89 88 87 86 86 86 88 88 88 87 86 82 80 82 83 83 82 81 81 81 80 79 79 79 80 81 80 81 83 83 81 80 80 81 82 81 81 79 79 79 79 81 82 83 82 80 80 82 85 86 86 86 86 84 84 84 86 87 88 88 84 82 80 79 79 81 
91 91 91 91 88 87 88 89 89 89 87 87 89 88 89 90 91 92 92 92 100 95 92 92 93 100 100 95 93 91 92 91 90 91 89 88 88 87 87 87 88 88 86 85 85 82 80 81 81 83 83 84 84 82 80 79 80 81 81 81 81 81 83 83 81 79 79 81 82 82 81 81 81 81 81 81 83 83 82 80 81 83 85 86 86 86 86 85 85 85 86 87 88 87 85 82 81 79 80 82 
91 91 91 91 89 87 87 88 89 89 89 89 89 89 89 89 90 91 91 92 96 115 123 115 117 131 120 125 102 104 107 98 92 90 88 88 89 89 90 90 88 86 84 85 84 83 83 81 81 83 85 85 85 83 81 82 84 86 85 82 81 81 83 84 83 81 80 81 81 82 83 83 83 83 83 83 84 83 82 81 81 82 84 85 86 86 86 86 85 85 86 86 87 87 84 83 81 80 80 81 
89 88 89 89 88 85 85 86 88 90 90 89 89 90 89 88 88 92 99 117 128 157 181 189 193 201 200 197 187 177 154 140 117 96 92 92 89 89 90 91 90 86 83 83 83 83 84 83 82 83 84 85 84 83 83 84 86 87 86 83 82 82 82 84 85 84 83 81 80 82 83 84 84 85 85 84 85 85 83 82 81 82 83 84 85 85 86 86 86 85 85 85 85 85 84 82 82 81 81 81 
87 86 87 88 88 86 84 85 87 88 87 86 87 88 89 91 105 119 146 179 197 204 207 209 213 214 214 215 216 215 213 207 185 135 112 113 95 91 92 89 90 88 85 85 85 85 86 85 83 82 82 82 82 82 83 86 87 87 85 83 82 82 82 83 84 85 85 84 81 81 82 83 84 85 85 84 84 84 84 84 85 86 85 85 84 85 86 86 86 85 84 83 84 83 82 82 82 83 83 84 
86 84 87 88 89 87 85 85 86 87 86 85 85 88 90 95 124 174 193 200 204 207 211 217 218 219 220 221 223 223 223 223 218 208 178 117 99 86 91 89 90 88 85 85 85 85 86 87 84 81 80 79 79 81 83 85 87 86 84 82 83 81 82 82 81 84 85 82 78 79 80 82 83 85 83 82 81 83 84 84 86 87 88 86 84 84 85 86 85 83 82 81 81 82 82 82 83 84 85 85 
85 84 86 88 89 88 86 85 86 87 86 85 85 86 102 141 187 198 205 209 210 211 214 216 221 222 224 224 226 225 224 224 223 221 216 194 127 96 90 88 87 87 86 85 85 86 86 86 83 80 78 78 79 82 82 82 83 82 79 79 79 78 79 79 78 76 78 77 74 75 78 80 81 82 81 79 78 79 82 84 86 89 89 87 83 82 83 85 84 81 81 80 80 82 83 83 83 83 83 84 
84 82 83 84 86 88 87 86 85 88 89 88 90 116 166 193 197 199 206 209 211 213 218 220 220 222 224 225 227 227 227 227 228 226 224 217 197 139 97 88 86 87 86 85 86 87 86 85 82 79 77 78 80 80 78 78 78 77 74 74 75 76 79 80 78 76 76 74 74 75 77 80 79 78 80 80 78 78 82 85 87 87 87 85 83 83 84 84 83 82 80 77 79 83 84 83 82 82 79 79 
87 83 83 82 81 86 87 85 85 88 90 90 116 175 187 195 197 196 205 208 210 214 220 217 219 223 223 226 229 228 229 228 228 226 225 221 216 197 134 101 88 87 86 85 86 87 86 83 81 79 77 78 78 78 77 77 78 78 76 76 78 79 81 82 81 78 78 79 80 79 80 83 81 79 83 84 82 83 85 87 89 88 85 85 85 84 83 83 82 83 83 81 82 84 84 81 80 79 78 78 
85 83 83 82 81 81 84 84 84 88 90 104 153 185 188 190 192 196 203 210 211 216 217 221 223 222 225 227 228 227 227 228 228 226 226 226 223 216 193 129 92 89 87 86 88 89 88 82 80 79 77 78 79 77 77 79 81 82 81 81 84 83 83 84 84 84 84 85 84 82 82 83 83 81 83 84 84 84 84 86 85 84 83 84 86 84 83 81 81 83 84 83 83 85 84 81 80 79 79 79 
80 81 83 83 80 78 79 82 83 84 91 142 181 180 179 177 174 184 202 204 207 212 218 223 226 225 227 228 228 228 228 228 228 228 228 226 226 220 214 182 100 91 90 90 90 91 90 84 80 77 76 79 80 78 76 79 82 82 80 81 84 83 83 83 84 84 84 85 84 81 79 81 83 81 80 79 79 78 77 78 78 77 80 83 85 83 79 77 77 81 83 83 83 84 85 84 84 83 82 82 
80 81 82 83 82 79 80 82 83 90 128 176 178 173 179 185 188 196 197 191 198 206 217 221 221 225 227 228 228 228 228 229 229 229 229 226 227 223 218 210 133 93 91 92 92 92 91 84 79 77 77 80 81 79 77 78 81 82 80 81 82 82 81 82 85 85 82 83 82 80 78 81 83 80 76 75 76 76 75 75 75 77 79 82 84 81 77 77 78 81 81 80 80 82 83 85 85 83 82 82 
84 85 85 84 83 82 86 91 93 105 167 176 172 184 193 197 201 214 213 207 203 199 209 218 223 224 228 228 229 229 229 229 229 229 228 226 224 224 220 215 188 112 92 90 90 89 86 81 78 79 81 84 84 81 80 81 83 85 83 82 81 81 82 85 86 82 77 78 80 80 82 83 84 81 77 76 79 81 81 80 80 80 83 85 83 79 78 79 81 84 84 82 80 79 79 79 79 76 76 78 
88 85 86 88 87 82 83 90 92 119 175 166 176 192 192 195 201 209 212 211 212 207 197 205 221 224 226 228 228 229 229 229 229 229 228 228 224 223 218 215 206 148 93 91 89 87 84 81 78 81 83 84 84 82 81 82 84 84 84 84 80 80 82 84 84 80 75 75 77 80 82 84 83 81 79 77 79 83 86 86 83 82 85 86 82 79 77 81 83 82 83 83 80 79 78 76 74 74 75 76 
90 87 88 89 87 83 81 84 92 143 167 174 176 188 190 193 203 206 209 210 218 217 210 198 213 224 225 227 228 228 228 229 229 228 228 228 226 225 221 217 211 185 103 91 89 88 86 87 85 83 81 80 83 84 81 82 84 82 83 83 78 76 79 82 82 79 75 71 70 76 79 79 78 81 80 76 76 80 85 86 83 82 80 82 81 79 79 81 80 78 82 83 81 80 81 80 76 76 78 78 
86 88 86 87 87 83 79 75 86 157 176 176 172 182 189 191 196 207 206 211 217 222 215 210 202 221 225 224 226 228 229 229 228 228 227 226 227 224 223 219 213 200 116 92 90 89 89 91 92 86 80 80 83 85 83 82 82 81 81 83 79 74 77 80 81 82 79 72 68 70 76 77 76 78 79 75 72 76 80 83 82 79 76 75 76 79 81 82 80 79 83 85 82 80 84 85 82 81 82 82 
90 89 84 84 85 83 81 79 109 161 176 177 175 180 188 189 194 207 206 209 211 219 220 215 201 206 219 224 226 228 229 229 229 228 227 226 225 220 220 217 213 203 145 94 89 89 88 86 90 87 82 84 85 85 85 83 82 82 80 83 84 78 77 78 79 82 82 75 68 70 76 80 77 74 77 79 75 75 79 83 81 79 77 76 76 79 83 85 85 85 88 88 82 80 81 83 83 84 83 80 
94 92 85 83 87 88 88 86 123 167 173 177 171 180 184 186 195 200 208 205 209 211 217 221 213 202 212 215 222 228 230 229 226 224 224 223 223 218 215 214 211 205 157 93 86 86 83 81 84 84 81 82 83 82 86 87 86 83 81 80 82 78 76 75 72 75 80 80 74 71 76 80 78 76 79 80 76 73 77 82 80 75 77 78 77 82 84 85 88 84 82 82 82 80 80 80 82 85 82 76 
92 94 89 87 89 90 92 91 128 168 173 178 168 179 184 184 186 190 202 202 205 214 216 222 215 203 204 210 218 225 227 226 224 221 220 223 221 217 218 214 206 203 175 109 88 86 84 83 82 83 82 81 77 76 83 87 83 79 79 77 77 79 78 77 74 73 76 79 76 76 77 76 75 74 76 78 77 75 77 81 78 76 78 78 78 81 80 81 84 79 77 77 79 82 85 84 86 87 82 74 
94 94 94 90 88 88 89 95 129 169 172 173 171 175 185 186 183 192 195 197 202 207 209 217 218 205 200 209 215 221 221 222 223 221 219 217 217 217 215 211 208 203 180 107 92 88 86 86 84 84 86 86 81 76 77 82 86 81 78 77 80 86 88 86 82 75 73 75 76 76 76 77 77 76 73 73 76 75 75 77 78 77 78 76 75 76 74 74 77 79 80 79 77 81 83 82 85 85 82 77 
96 96 95 92 89 87 84 92 128 169 168 167 171 171 177 183 183 188 197 199 199 204 207 214 217 210 197 200 211 215 221 221 221 220 217 214 216 216 212 211 208 202 176 117 95 89 85 85 83 85 88 91 88 83 82 82 85 83 77 80 84 86 90 92 87 80 78 78 79 77 75 82 83 78 74 74 76 73 73 75 79 80 75 71 71 72 70 69 72 80 85 82 80 81 79 76 78 80 80 81 
91 94 94 92 86 83 81 87 132 168 166 167 171 172 174 183 183 182 193 195 192 198 202 207 214 210 197 193 208 212 215 217 218 217 213 216 213 215 213 211 208 205 178 117 100 95 90 84 81 86 91 93 92 93 88 82 84 88 81 80 82 80 84 92 87 81 80 81 82 81 82 87 84 78 73 76 81 80 76 72 73 75 73 71 71 75 74 71 69 76 83 85 82 82 80 77 77 76 76 82 
81 83 87 91 86 81 81 92 129 166 166 166 168 179 173 182 188 180 184 195 196 197 198 201 212 210 199 190 200 207 210 210 210 212 213 213 212 210 204 204 203 201 168 108 99 95 88 84 83 88 89 88 91 93 92 83 80 90 86 83 83 79 79 88 88 87 82 81 85 82 82 86 85 77 75 76 83 85 83 79 75 79 76 69 71 78 81 81 76 77 78 83 80 85 88 82 82 76 78 83 
74 72 80 87 86 82 83 94 126 165 164 163 160 163 168 172 181 181 182 185 193 196 197 200 207 207 200 191 198 203 205 208 209 212 211 209 210 205 205 204 200 195 157 102 93 84 79 88 92 85 81 86 88 90 90 87 87 87 82 81 84 84 84 86 88 88 81 84 90 83 80 83 92 82 81 83 85 83 82 84 79 82 84 79 81 76 75 80 82 79 80 84 80 85 91 84 78 78 84 87 
74 75 83 85 85 80 80 85 110 160 163 160 163 159 168 172 176 180 184 185 189 197 196 200 205 206 200 188 200 201 202 205 207 205 208 203 206 203 198 199 195 193 129 91 87 84 83 92 97 89 90 87 80 87 87 90 88 84 87 81 83 89 90 87 82 89 85 85 94 83 77 81 91 86 84 87 83 83 86 91 88 93 93 92 91 83 80 82 88 83 85 85 82 83 77 75 76 82 84 89 
70 75 79 84 84 74 80 85 99 150 161 160 164 164 165 175 169 178 181 179 182 188 192 197 197 201 197 183 197 202 197 198 200 198 200 201 203 200 197 199 193 184 110 92 89 83 81 92 98 96 105 96 83 88 81 86 81 83 84 91 92 92 93 89 80 90 84 80 91 84 78 82 87 85 83 91 93 91 88 95 89 95 88 87 89 83 85 89 93 89 87 86 83 88 81 85 87 87 84 87 
71 74 75 76 72 70 71 74 77 126 158 158 157 162 162 169 170 170 177 179 180 187 188 192 198 201 196 180 190 200 200 196 196 195 198 200 197 197 198 195 190 175 103 90 91 86 86 87 91 88 94 91 84 86 87 90 90 94 85 91 86 87 82 77 84 84 88 90 90 85 86 85 86 80 76 94 98 89 87 88 79 85 80 83 81 74 76 87 92 88 79 84 84 87 78 87 85 85 82 79 
71 69 75 71 70 73 71 63 64 91 158 157 153 155 160 163 172 169 170 173 180 188 184 192 192 198 191 180 182 192 198 196 198 196 195 195 197 193 191 188 183 141 99 89 91 92 92 87 84 85 92 90 88 91 83 87 83 90 86 84 80 94 80 72 80 83 86 91 88 86 90 86 88 82 75 91 98 88 85 80 76 79 80 81 81 78 78 79 79 94 84 84 81 78 74 83 88 90 81 82 
66 67 69 71 71 70 64 65 68 74 132 156 153 153 156 156 157 167 175 179 180 183 186 191 195 198 190 175 175 188 194 194 193 191 191 197 197 194 191 188 169 109 93 84 88 89 85 94 80 90 95 83 80 88 78 80 85 89 85 82 89 91 88 84 89 81 85 102 91 87 93 86 84 93 94 96 88 91 81 78 79 80 72 90 90 87 87 81 82 85 82 84 83 79 66 78 77 76 66 79 
67 64 62 60 62 66 59 60 65 69 77 147 150 151 152 160 166 161 163 163 175 176 183 186 189 195 198 178 168 185 194 193 194 195 188 194 195 189 183 182 128 93 92 86 80 77 73 83 76 88 89 81 73 71 80 80 79 75 89 75 95 77 72 83 88 81 73 88 76 81 91 87 81 82 84 91 77 84 91 88 79 79 79 79 84 88 81 82 91 82 76 81 87 71 78 83 86 83 80 73 
63 60 60 58 55 59 59 59 59 61 57 90 151 150 151 155 156 160 166 161 170 176 170 178 186 192 197 182 155 181 187 189 194 192 190 188 188 187 182 135 89 80 86 86 93 92 87 89 89 89 86 86 81 75 83 73 76 89 91 87 87 85 94 85 80 80 76 75 82 90 92 88 80 80 76 85 76 85 86 85 72 84 91 86 73 75 83 95 90 90 81 84 88 85 80 86 88 82 85 83 
62 63 64 61 57 52 61 54 49 54 41 49 120 147 151 156 157 156 167 162 166 172 174 177 185 191 199 192 160 157 182 185 185 189 187 185 184 180 143 83 76 76 74 79 86 103 90 89 79 83 85 86 83 77 91 83 91 89 91 89 78 89 89 82 91 85 87 80 81 80 91 94 85 87 84 83 100 84 70 76 83 78 87 81 74 63 77 88 83 89 87 82 96 86 80 74 77 74 80 81 
59 62 57 50 58 56 48 51 42 47 47 45 56 109 141 147 152 156 161 165 164 165 163 170 176 180 190 193 179 149 163 180 184 183 184 181 172 139 101 80 81 80 75 76 89 85 87 82 84 85 88 92 94 90 82 79 95 87 86 91 85 86 90 93 92 88 87 87 77 86 90 91 94 85 82 78 73 88 88 72 87 84 78 79 73 74 86 84 85 74 89 93 87 91 72 74 78 77 76 79 
58 60 58 58 55 50 50 47 43 42 41 42 38 46 84 128 146 152 153 159 162 166 163 169 172 175 184 190 193 172 146 153 164 167 169 169 139 84 78 77 68 77 75 78 85 90 75 83 91 87 84 85 81 96 92 95 89 93 92 88 83 90 100 91 91 82 90 93 86 82 85 87 90 82 83 73 77 82 87 77 86 80 83 90 78 69 89 89 72 68 74 79 82 88 84 71 80 75 68 73 
99 94 107 104 82 82 82 75 92 78 74 64 52 54 59 70 93 116 143 152 159 160 165 168 173 174 179 182 191 193 173 159 156 155 163 131 79 68 71 83 88 80 84 90 80 96 76 99 90 87 88 94 93 112 92 85 78 76 84 80 80 95 89 79 95 82 84 84 96 89 99 88 89 83 88 93 92 92 75 83 95 97 88 84 89 78 80 78 79 82 79 76 76 80 66 77 76 77 64 77 
165 185 182 168 163 166 157 150 138 134 117 106 107 91 88 84 77 57 79 127 140 144 149 153 159 166 171 175 176 183 183 184 181 161 149 146 146 138 133 150 173 154 176 177 150 154 159 195 167 154 143 163 157 192 137 145 159 145 135 159 152 160 163 141 95 80 135 152 164 183 171 155 175 178 171 169 172 183 164 154 140 160 156 150 106 90 127 146 118 126 133 111 129 107 117 103 98 110 124 151 
187 188 178 169 183 188 175 186 161 144 175 142 137 126 98 102 66 59 49 59 86 99 114 122 124 135 149 153 156 155 154 140 139 128 131 132 163 146 175 157 170 158 179 189 173 178 184 183 179 176 160 174 194 186 182 195 193 168 190 185 173 181 193 188 182 161 172 167 176 195 198 184 178 197 166 164 195 188 180 183 194 201 180 181 191 166 179 199 174 185 189 179 172 183 186 169 193 186 191 177 
185 189 192 189 184 201 193 184 187 176 189 163 184 173 152 152 142 139 125 99 115 91 97 110 87 105 101 101 110 116 113 146 149 154 169 148 168 188 190 163 175 169 176 182 178 192 186 195 179 189 190 167 200 193 199 182 179 178 182 195 194 185 196 183 181 202 184 176 193 195 187 200 196 194 190 192 194 176 147 177 179 194 181 181 194 184 171 190 188 180 181 176 178 191 187 200 185 172 171 178 
193 199 182 189 188 203 206 185 183 172 181 161 157 180 195 197 182 174 170 163 167 172 166 153 166 177 159 164 168 161 161 170 191 173 188 190 192 183 183 158 188 199 186 176 176 190 191 191 185 173 183 188 199 207 192 175 175 194 183 176 178 185 191 169 179 184 189 177 181 169 171 197 199 191 191 191 185 183 177 189 161 178 195 195 188 183 172 153 182 175 176 176 169 186 195 194 174 159 163 158 
196 179 187 169 194 192 194 190 174 177 177 131 148 176 190 189 190 175 190 185 175 189 177 189 180 179 168 182 189 198 203 195 184 169 173 191 188 183 172 178 179 179 197 178 172 183 178 201 194 183 184 196 178 180 182 196 190 183 181 177 185 183 180 166 180 172 191 189 194 177 178 184 182 188 194 173 177 180 190 188 127 167 170 193 182 183 172 167 161 188 187 176 169 161 188 192 179 181 175 164 
177 145 151 160 145 134 121 169 183 165 111 104 115 120 130 119 123 166 166 166 163 179 137 128 177 181 166 162 174 158 165 137 138 175 178 154 156 163 186 184 157 169 203 177 164 162 192 181 188 187 204 192 176 178 165 183 191 190 193 198 191 184 182 188 193 190 196 162 172 180 175 195 168 168 186 192 174 188 163 180 192 184 168 171 190 189 197 200 172 159 186 187 186 194 190 185 177 175 168 174 
92 82 67 69 82 81 103 91 86 89 86 90 80 79 93 77 86 99 93 91 95 79 76 87 100 96 90 87 92 79 85 88 92 92 96 72 82 106 115 119 83 101 114 100 104 140 134 141 141 131 128 125 133 147 154 185 173 167 149 176 169 163 174 179 146 172 183 186 194 188 185 161 137 166 167 172 175 176 182 163 130 178 155 139 173 181 175 177 206 158 191 172 192 157 190 202 200 179 192 180 
99 96 69 68 77 74 76 95 86 75 77 88 82 78 87 83 64 78 84 102 84 64 78 83 77 96 87 88 76 83 79 80 80 87 98 80 101 95 82 77 92 79 89 85 75 72 93 78 86 83 96 90 79 97 95 95 88 100 93 93 89 80 85 82 106 84 103 107 96 87 98 90 93 86 89 101 81 78 87 83 80 78 101 79 80 88 105 119 129 117 141 135 178 152 151 131 157 145 144 161 
102 82 86 86 91 85 81 81 86 98 97 107 79 77 69 73 79 86 86 86 87 90 83 78 59 84 84 91 81 86 78 92 89 77 85 79 82 81 82 76 69 77 79 90 97 82 84 85 80 94 90 77 67 86 83 69 63 97 75 76 64 63 79 74 79 70 80 75 87 86 92 94 95 97 98 82 70 81 81 76 87 83 69 84 92 90 82 87 89 90 89 72 73 94 84 82 77 77 81 83 
88 82 78 81 88 91 89 85 75 83 89 68 66 65 74 67 83 81 78 83 90 84 75 90 83 77 71 76 83 78 86 86 75 78 82 88 98 73 79 85 75 83 76 78 95 79 98 88 72 89 79 91 73 84 81 85 84 87 71 82 81 90 99 91 82 73 86 71 80 100 86 67 82 80 86 86 81 69 71 79 57 57 88 97 74 73 76 82 86 92 83 73 78 65 87 85 87 84 72 74 
66 67 82 77 89 86 85 86 85 81 73 68 67 76 87 82 85 87 95 86 93 77 69 89 78 82 76 65 75 75 76 77 72 62 63 77 80 87 96 91 74 88 80 79 82 85 97 81 84 82 71 90 83 87 87 82 73 93 81 96 81 93 92 80 78 83 77 91 93 83 84 79 77 87 80 89 80 78 73 82 87 65 76 81 86 72 77 87 79 90 85 77 72 68 90 78 91 92 86 88 
72 69 75 83 87 73 72 68 80 82 83 75 81 80 89 72 92 83 87 78 84 73 94 86 84 72 74 85 86 86 83 69 67 91 83 79 70 82 89 80 85 97 83 89 85 96 91 81 79 78 84 93 77 84 74 87 77 64 73 90 67 80 83 81 80 82 75 72 86 84 83 75 83 85 82 94 81 82 76 87 91 81 71 67 75 74 76 84 81 90 83 83 78 84 91 97 90 85 67 89 
91 77 65 76 91 77 81 78 84 85 83 90 98 78 83 73 82 84 85 78 80 89 79 86 77 78 81 93 77 80 97 89 79 86 82 78 80 78 79 85 95 97 96 99 79 79 82 62 61 79 91 80 63 67 83 80 67 72 75 84 79 64 71 75 70 77 81 61 72 75 83 72 71 63 67 94 85 70 75 79 68 104 81 89 83 77 68 77 74 91 81 71 70 81 71 80 80 95 81 77 
96 94 82 73 71 85 86 93 98 82 86 93 87 76 72 91 83 75 56 83 86 88 70 68 73 76 84 87 82 75 88 95 78 63 61 82 71 88 83 78 87 88 87 84 83 90 67 70 67 74 84 86 77 72 80 87 81 75 79 81 85 81 78 79 82 87 87 76 83 64 84 80 90 70 72 74 76 71 73 67 81 81 82 87 81 75 87 74 66 78 86 72 79 90 91 87 60 70 95 72 
76 73 89 87 76 89 81 89 83 70 82 75 74 80 77 86 88 84 68 83 92 89 76 84 73 73 72 77 79 78 83 84 84 81 76 81 73 74 83 83 84 93 76 75 71 82 70 85 95 87 77 80 82 78 79 80 74 57 82 83 82 82 74 79 80 79 87 75 82 80 81 66 67 79 75 79 66 77 81 82 90 58 61 74 73 67 77 85 73 71 75 74 85 97 76 78 70 74 83 80 
80 75 86 79 83 85 72 87 90 78 93 87 68 66 59 82 90 86 70 75 84 86 86 77 69 80 78 77 72 72 74 78 89 96 84 77 82 84 86 82 83 85 76 76 77 82 67 75 82 78 79 78 71 82 87 81 74 65 75 79 80 75 72 80 78 79 90 84 83 85 79 71 55 66 70 81 80 77 77 72 84 84 54 73 75 76 72 63 63 68 61 64 78 82 69 63 74 79 79 75 
76 77 76 72 71 71 71 87 96 93 91 83 85 79 79 83 89 84 66 70 74 81 73 78 77 84 79 79 81 80 71 81 88 90 77 75 91 91 87 83 77 84 78 77 80 80 74 67 65 77 82 78 77 78 81 82 84 82 69 91 77 68 57 74 80 79 73 88 83 72 70 74 78 71 55 63 71 69 67 60 55 91 66 69 90 87 79 60 65 59 57 73 83 94 79 83 79 79 81 77 
70 84 90 87 71 62 78 81 85 85 77 78 88 70 79 84 106 92 87 83 80 77 83 74 90 84 78 77 88 94 85 71 64 73 72 70 93 92 87 75 72 72 76 70 69 75 72 70 58 69 69 75 82 84 79 70 87 64 73 94 75 64 72 77 81 90 68 69 86 81 85 80 87 66 60 69 68 70 71 71 72 94 77 66 85 82 85 67 61 71 66 74 62 81 81 81 75 66 74 61 
71 71 96 100 72 72 83 81 84 77 64 86 75 75 80 70 94 95 85 88 87 80 83 77 83 88 75 76 74 91 74 60 52 64 67 67 76 69 73 79 68 62 74 79 69 80 63 64 59 58 65 74 85 75 72 68 75 83 83 85 88 75 69 75 82 86 68 62 73 69 81 68 73 75 73 82 72 75 77 70 90 81 78 80 79 85 88 78 62 62 74 68 72 64 74 73 80 80 76 61 
69 67 89 81 74 73 69 82 83 87 79 84 92 78 78 74 84 83 81 85 85 83 85 88 83 87 73 74 67 65 71 76 78 83 78 74 68 74 82 91 68 56 68 79 78 75 70 59 69 57 70 76 79 72 68 60 65 58 74 81 83 78 72 73 80 72 61 70 67 60 81 81 74 74 66 74 81 67 61 77 84 66 62 71 78 80 76 77 59 73 99 84 80 75 59 71 78 71 74 78 
74 76 82 79 78 82 62 75 80 77 70 76 87 82 88 78 78 73 71 76 79 78 86 91 86 84 86 88 74 74 79 69 67 72 71 74 64 74 87 78 72 77 70 72 80 71 77 68 65 57 70 65 71 77 70 61 78 82 82 77 79 77 74 68 69 77 69 68 67 53 73 80 88 93 78 73 73 75 65 76 83 66 83 90 74 71 71 76 70 76 99 88 80 74 56 75 88 71 68 67 
70 81 81 72 69 77 77 75 68 78 74 78 88 83 78 80 78 79 76 74 76 83 81 82 78 72 79 91 84 76 78 85 74 67 63 73 63 72 84 89 85 81 72 67 75 71 69 68 60 69 81 75 74 77 67 72 85 79 81 78 64 57 61 69 71 69 66 80 85 68 78 78 84 100 97 88 76 77 72 71 67 62 78 80 73 69 63 65 76 89 82 86 84 66 72 81 77 80 80 71 
79 84 84 75 62 72 82 71 65 75 91 88 88 82 74 79 76 76 80 77 75 74 75 79 84 75 74 80 84 80 73 71 74 71 65 64 70 74 77 88 81 77 78 76 81 76 75 84 78 80 82 77 73 72 61 68 82 79 82 74 66 69 71 68 74 56 65 80 84 71 69 63 66 87 91 79 66 65 64 75 75 81 81 78 68 75 82 67 86 86 72 71 81 79 61 71 75 84 85 74 
75 86 83 74 69 73 77 73 70 76 95 92 74 66 71 82 82 76 77 75 76 74 79 80 84 75 68 72 83 83 79 71 67 69 70 68 81 85 82 85 79 71 80 79 79 81 78 80 78 85 84 67 59 55 57 62 74 86 89 70 73 76 70 81 94 64 65 71 74 65 61 70 72 84 83 85 72 72 71 78 88 78 72 79 62 70 78 69 85 80 78 76 77 78 63 69 73 74 71 71 
73 80 83 81 73 77 74 69 71 76 86 91 73 69 74 85 88 78 79 78 78 74 72 83 86 79 75 72 81 84 81 81 73 75 78 70 79 86 84 80 71 71 69 68 70 70 72 79 70 74 75 71 68 59 59 58 63 79 83 83 82 73 59 79 93 66 64 63 66 64 58 71 75 79 78 70 71 77 81 84 89 74 60 57 65 76 79 66 64 79 84 82 77 79 71 85 80 69 58 75 
83 82 79 84 76 78 79 81 82 80 80 87 85 86 93 93 81 70 75 76 81 80 75 85 89 78 76 75 68 69 78 84 77 79 80 64 75 81 72 73 72 76 72 75 80 70 71 87 70 73 77 77 73 70 73 73 72 67 67 80 75 70 59 55 66 65 60 72 76 66 65 74 73 69 76 71 71 65 72 83 82 76 69 57 62 76 77 65 60 66 66 71 78 79 62 81 82 75 67 70 
83 90 84 75 66 70 79 83 80 79 87 87 86 84 90 92 85 75 73 66 69 82 83 81 87 81 77 82 71 57 66 81 80 86 81 62 71 86 77 71 75 80 78 74 75 75 80 81 71 71 75 77 71 73 83 86 80 65 63 71 68 73 77 69 58 57 57 65 66 63 72 77 71 64 74 77 80 60 63 75 71 78 89 73 64 73 74 60 57 63 63 58 81 86 73 84 90 84 74 69 
82 95 91 80 72 78 87 92 79 74 87 81 79 74 81 82 88 90 83 71 66 74 80 82 88 78 70 76 79 65 53 55 57 71 76 72 74 80 78 77 87 87 78 74 72 71 75 62 56 64 77 77 71 74 78 75 73 75 67 72 71 75 79 74 67 64 65 61 62 67 72 76 75 71 76 86 86 68 67 72 66 69 82 74 60 66 70 68 60 61 68 60 76 90 87 84 81 77 72 72 
77 94 88 81 79 77 83 92 80 71 77 74 76 74 71 66 72 87 88 76 67 68 80 83 82 72 67 74 83 79 65 55 54 61 68 77 81 82 79 79 93 95 81 78 76 74 76 68 62 71 79 76 70 71 76 71 69 71 63 70 76 75 68 66 72 77 79 73 74 82 89 90 82 79 80 89 87 70 67 70 70 68 74 72 65 67 67 73 73 62 67 69 72 82 84 81 76 74 80 88 
79 83 80 79 79 77 78 81 76 71 73 72 73 71 69 67 68 78 81 69 66 69 78 75 75 79 83 86 86 86 79 69 67 65 68 83 89 85 77 74 83 89 85 82 75 75 79 74 69 71 73 71 70 67 74 79 73 70 63 69 83 86 73 71 81 88 87 78 77 91 106 99 83 81 80 86 80 70 68 71 73 70 70 69 71 75 69 79 78 68 67 67 69 78 70 74 75 75 80 87 
78 72 72 79 81 80 79 78 73 74 79 79 75 70 65 67 69 73 68 63 68 73 74 73 77 81 85 88 87 85 79 75 73 69 68 81 90 81 72 68 67 72 75 76 75 72 68 71 72 68 63 67 77 72 70 75 75 73 68 73 86 91 80 72 83 91 87 81 77 87 95 83 79 84 82 81 76 75 79 82 84 72 73 70 70 72 71 72 73 73 73 71 73 80 70 66 67 70 77 79 
77 77 75 79 82 81 80 76 75 77 82 79 72 75 71 69 73 76 72 69 73 75 73 74 80 77 76 85 90 85 76 73 78 78 70 72 73 71 70 66 65 64 66 69 75 70 68 74 80 78 74 77 87 83 75 74 73 67 64 69 76 81 73 62 68 84 82 80 73 76 79 78 74 84 87 87 79 83 89 95 96 80 77 74 70 71 72 66 64 74 75 69 66 76 79 76 70 72 78 78 
